<svg xmlns="http://www.w3.org/2000/svg" viewBox="0 0 255.72 67.44"><defs><style>.cls-1{fill:#fff;}.cls-2{fill:#eb6725;}</style></defs><title>Asset 1</title><g id="Layer_2" data-name="Layer 2"><g id="Layer_1-2" data-name="Layer 1"><path class="cls-1" d="M113.45,36.91V54.8H103.34V38.66c0-3.15-1.52-5.9-5-5.9s-4.86,2.75-4.86,5.9V54.8H83.4V13.29h6.75a3.36,3.36,0,0,1,3.36,3.36V28a10.17,10.17,0,0,1,8.66-4.15C108.31,23.81,113.45,27.61,113.45,36.91Z"/><path class="cls-1" d="M117.14,39.6c0-10.35,8.24-15.79,16.25-15.79s16.2,5.44,16.2,15.79-8.24,15.79-16.2,15.79S117.14,50,117.14,39.6Zm22.51,0c0-4-2.81-6.73-6.26-6.73s-6.31,2.7-6.31,6.73,2.8,6.72,6.31,6.72S139.65,43.63,139.65,39.6Z"/><path class="cls-1" d="M166.37,44.34l-3,3.33V54.8H153.27V13.29H160a3.36,3.36,0,0,1,3.37,3.36v18.1l8.89-10.35h12l-11.7,13L185.49,54.8H174.44Z"/><path class="cls-1" d="M217.48,27.76v27H207.37V51.24a10.21,10.21,0,0,1-8.72,4.15c-6.08,0-11.22-3.8-11.22-13.1V24.4h10.11V40.54c0,3.15,1.52,5.9,5,5.9s4.86-2.75,4.86-5.9V24.4h6.75A3.36,3.36,0,0,1,217.48,27.76Z"/><path class="cls-1" d="M255.72,39.6c0,10.64-7.6,15.79-14.44,15.79-5.26,0-8.13-2.93-8.36-3.45h-.18v14H222.63V24.4h10.11v2.86h.18c.23-.52,3.1-3.45,8.36-3.45C248.12,23.81,255.72,29,255.72,39.6Zm-9.94,0a6.64,6.64,0,1,0-13.27,0,6.64,6.64,0,1,0,13.27,0Z"/><path class="cls-2" d="M62.32,0h-15a5.2,5.2,0,0,0-5.2,5.2V9.64A7.34,7.34,0,0,0,49.46,17H67.52V5.2A5.2,5.2,0,0,0,62.32,0Z"/><path class="cls-2" d="M18.06,51H0V63.77a3.67,3.67,0,0,0,3.67,3.67H21.73a3.68,3.68,0,0,0,3.67-3.67V58.36A7.34,7.34,0,0,0,18.06,51Z"/><path class="cls-2" d="M60.18,33.66H50.49l-19.78,0a5.31,5.31,0,0,1-5.31-5.31v-21A7.34,7.34,0,0,0,18.06,0H5.2A5.2,5.2,0,0,0,0,5.2V26.44a7.34,7.34,0,0,0,7.34,7.34H20.08A5.32,5.32,0,0,1,25.4,39.1v4A5.56,5.56,0,0,0,25.73,45a8.53,8.53,0,0,0,8.11,5.55H37.2a5.28,5.28,0,0,1,4.92,4.51V60.1a7.34,7.34,0,0,0,7.34,7.34H67.52V41A7.34,7.34,0,0,0,60.18,33.66Z"/></g></g></svg>