<svg xmlns="http://www.w3.org/2000/svg" viewBox="0 0 260 65"><defs><style>.cls-1{fill:#c4c4c4;opacity:0;}.cls-2{fill:#fff;}</style></defs><title>oh</title><g id="Layer_2" data-name="Layer 2"><g id="Layer_1-2" data-name="Layer 1"><rect class="cls-1" width="260" height="65"/><path class="cls-2" d="M31.19,21.49C16,8.59-5.69,28.39,10.28,44.16,25.67,55.73,44.4,36.19,31.19,21.49ZM29.32,36.58c-5,12.38-24.06,5-17.68-9.53C17.08,16.48,34,23.41,29.32,36.58Z"/><path class="cls-2" d="M59.13,31.42a7.28,7.28,0,0,0,1.75-5.06A7.65,7.65,0,0,0,60,22.54,7.17,7.17,0,0,0,57.64,20a9.86,9.86,0,0,0-3.37-1.39,17.93,17.93,0,0,0-3.9-.42H40.46V46.71h5.07V34.62h3.71l6.6,12.09H62L54.35,34.06A8.87,8.87,0,0,0,59.13,31.42Zm-7.27-1.11a14.54,14.54,0,0,1-2.18.16H45.53v-8h4.59a12.62,12.62,0,0,1,2,.16,5.79,5.79,0,0,1,1.83.6,3.9,3.9,0,0,1,1.33,1.19,3.26,3.26,0,0,1,.52,1.91,3.66,3.66,0,0,1-.56,2.12,3.87,3.87,0,0,1-1.43,1.27A6.54,6.54,0,0,1,51.86,30.31Z"/><polygon class="cls-2" points="62.33 22.62 71.07 22.62 71.07 46.71 76.15 46.71 76.15 22.62 84.89 22.62 84.89 18.19 62.33 18.19 62.33 22.62"/><polygon class="cls-2" points="106.6 46.71 111.68 46.71 111.68 18.19 106.6 18.19 106.6 29.71 93.27 29.71 93.27 18.19 88.19 18.19 88.19 46.71 93.27 46.71 93.27 34.06 106.6 34.06 106.6 46.71"/><path class="cls-2" d="M142.9,21.49C127.72,8.59,106,28.39,122,44.16,137.38,55.73,156.11,36.19,142.9,21.49ZM141,36.58c-5,12.38-24.06,5-17.67-9.53C128.78,16.48,145.65,23.41,141,36.58Z"/><polygon class="cls-2" points="174.24 46.71 174.24 18.19 173.35 18.19 173.35 31.56 154.18 31.56 154.18 18.19 153.29 18.19 153.29 46.71 154.18 46.71 154.18 32.37 173.35 32.37 173.35 46.71 174.24 46.71"/><path class="cls-2" d="M191.6,18.19,179.23,46.71h1l3.5-8.18h16.56l3.38,8.18h1L192.73,18.19ZM184,37.76l8.1-19,7.86,19Z"/><path class="cls-2" d="M227.31,45.68a15,15,0,0,1-10.88-.08,12.9,12.9,0,0,1-4.31-3A13.72,13.72,0,0,1,209.36,38a17.12,17.12,0,0,1,0-11.16,13.83,13.83,0,0,1,2.78-4.53,12.93,12.93,0,0,1,4.31-3.05,15.33,15.33,0,0,1,7.92-.9,13,13,0,0,1,2.39.64A12.81,12.81,0,0,1,229,20.14,9.6,9.6,0,0,1,231,21.69l.57-.64a10.88,10.88,0,0,0-4.29-2.76,16,16,0,0,0-11,.22,13.72,13.72,0,0,0-4.61,3.12,13.92,13.92,0,0,0-3,4.77,18.16,18.16,0,0,0,0,12.09,14.15,14.15,0,0,0,7.59,7.89,16.19,16.19,0,0,0,11.5.07,11.1,11.1,0,0,0,4.57-3.25l-.64-.6A10.47,10.47,0,0,1,227.31,45.68Z"/><polygon class="cls-2" points="254.6 18.19 253.31 18.19 238.97 31.28 238.93 31.28 238.93 18.19 238.04 18.19 238.04 46.71 238.93 46.71 238.93 31.36 238.97 31.36 254.08 46.71 255.32 46.71 240.1 31.28 254.6 18.19"/></g></g></svg>