<svg xmlns="http://www.w3.org/2000/svg" viewBox="0 0 260 65"><defs><style>.cls-1{fill:#c4c4c4;opacity:0;}.cls-2{fill:#fff;}</style></defs><title>tflx</title><g id="Layer_2" data-name="Layer 2"><g id="Layer_1-2" data-name="Layer 1"><rect class="cls-1" width="260" height="65"/><g id="Layer_1-3" data-name="Layer 1"><path class="cls-2" d="M5.75,32.64q7.92.21,11.71.21c1.92,0,4-.05,6.34-.17.82,0,1.5-.06,2-.06h1c.07.42.16,1.28.29,2.58l.23,2.41c0,.39-.17.59-.5.59s-.5-.24-.73-.73a7.32,7.32,0,0,0-1.49-2.12,4.52,4.52,0,0,0-2.1-1.17,19.29,19.29,0,0,0-4-.28,56.71,56.71,0,0,0-.24,5.83q0,3.59.13,6.91a26.89,26.89,0,0,0,.34,4,1.75,1.75,0,0,0,.67,1,5.48,5.48,0,0,0,2.22.44c.4,0,.6.17.6.43s-.18.43-.52.43l-.43,0-3.15-.08c-2.46,0-4,0-4.49,0L11.8,53c-.15,0-.47,0-.94,0-.24,0-.35-.18-.35-.38s.19-.44.57-.44a3.08,3.08,0,0,0,2-.58A2.66,2.66,0,0,0,14,49.75a52.25,52.25,0,0,0,.16-5.32c0-4.31-.14-7.81-.4-10.53a23.2,23.2,0,0,0-3.63.21,4.47,4.47,0,0,0-2.16,1.13,6.81,6.81,0,0,0-1.69,2.38c-.17.39-.37.57-.59.57s-.53-.14-.53-.45c0-.09.07-.76.2-2S5.59,33.46,5.75,32.64Z"/><path class="cls-2" d="M45.49,32.94l1,4.76a.39.39,0,0,1-.33.44H46c-.16,0-.35-.14-.55-.42a9.68,9.68,0,0,0-2.86-3A7.75,7.75,0,0,0,38.84,34a14.67,14.67,0,0,0-2.65.23,58.12,58.12,0,0,0-.29,5.9c0,.36,0,1,0,1.84l1.15,0a5.36,5.36,0,0,0,1.86-.29,2.63,2.63,0,0,0,1.34-1.27,8,8,0,0,0,.62-1.24c.09-.32.25-.49.47-.49s.43.13.43.37a1,1,0,0,1,0,.24A47.68,47.68,0,0,0,41.59,45a4.68,4.68,0,0,0,.12,1.18,1.22,1.22,0,0,1,0,.26c0,.29-.16.43-.49.43s-.39-.27-.51-.81a3.32,3.32,0,0,0-1.4-2.15,6.26,6.26,0,0,0-3.42-.77c-.05,1.7-.08,2.83-.08,3.37,0,2.31,0,3.69.11,4.13a1.47,1.47,0,0,0,.78,1,4.61,4.61,0,0,0,2.27.41q5.8,0,7.64-3.69c.17-.35.35-.52.57-.52s.44.12.44.37a3.2,3.2,0,0,1-.09.62l-1,4.37H41.05c-1.55,0-3,0-4.35-.11S34.3,53,33.55,53s-2.14,0-3.86.15l-.47,0q-.72,0-.72-.48c0-.31.2-.42.58-.42a2.2,2.2,0,0,0,2-.8,6.93,6.93,0,0,0,.51-3.27l.09-7.84c0-2.68,0-4.32-.1-4.94A1.72,1.72,0,0,0,31,34.18a3.61,3.61,0,0,0-1.6-.49c-.32,0-.49-.19-.49-.43s.19-.46.58-.46l3.67.11Z"/><path class="cls-2" d="M65.75,34.18c.22-.27.44-.58.67-.89s.51-.59.69-.59a.46.46,0,0,1,.4.15,3.09,3.09,0,0,1,.15.95l.3,4.75,0,.6c0,.41-.16.61-.48.61s-.39-.16-.52-.5a13.8,13.8,0,0,0-2.26-3.58,5.12,5.12,0,0,0-4.1-2,4.61,4.61,0,0,0-3.06,1,6.92,6.92,0,0,0-1.94,2.91,12.51,12.51,0,0,0-.69,4.42,11.47,11.47,0,0,0,1.93,7,5.85,5.85,0,0,0,4.82,2.6q3.12,0,5.73-3.78c.21-.31.41-.46.6-.46a.43.43,0,0,1,.49.37.24.24,0,0,1,0,.12c0,.67-.8,1.73-2.4,3.2a8.6,8.6,0,0,1-6,2.19,9.87,9.87,0,0,1-7.56-2.95,10.23,10.23,0,0,1-2.77-7.27,10.88,10.88,0,0,1,2.8-7.45,9,9,0,0,1,7.07-3.16A12.57,12.57,0,0,1,65.75,34.18Z"/><path class="cls-2" d="M75.55,32.78q7.31,8.31,12.18,13.31c0-.69,0-1.14,0-1.34l0-6a13.65,13.65,0,0,0-.25-3.06,2.46,2.46,0,0,0-1-1.45,3.81,3.81,0,0,0-1.85-.62c-.37,0-.57-.2-.57-.48s.17-.44.51-.44a4.74,4.74,0,0,1,.75.06q1.28.11,2.55.09c1.4,0,2.47,0,3.2-.11.3,0,.57,0,.77,0,.39,0,.58.15.58.44s-.26.45-.78.5a3.24,3.24,0,0,0-1.79.81A3.69,3.69,0,0,0,89,37.26l.07,8.62L89,52.36c0,.56-.17.84-.52.84a.9.9,0,0,1-.32-.09A28.52,28.52,0,0,1,86.06,51c-1.28-1.35-3.17-3.44-5.69-6.26s-4.28-4.86-5.29-6.09c0,.27,0,2.83,0,7.66a24.14,24.14,0,0,0,.19,3.51,2.42,2.42,0,0,0,1.18,1.85,3.78,3.78,0,0,0,1.81.57c.35,0,.52.13.52.4s-.18.45-.55.45a6.51,6.51,0,0,1-.88-.06A18.28,18.28,0,0,0,75,52.91a28,28,0,0,0-3.3.14,9.06,9.06,0,0,1-.91.07c-.4,0-.59-.16-.59-.5s.32-.39,1-.44A2.27,2.27,0,0,0,73.3,51a7.75,7.75,0,0,0,.44-2.86q0-7.86-.09-9.62a5.84,5.84,0,0,0-1.09-3.17,3.92,3.92,0,0,0-2.45-1.69c-.4-.07-.59-.23-.59-.47s.2-.51.62-.51a2,2,0,0,1,.44,0c.24,0,.66,0,1.27,0C73.18,32.73,74.42,32.74,75.55,32.78Z"/><path class="cls-2" d="M104.12,32.53a11.27,11.27,0,0,1,5.38,1.23,9.48,9.48,0,0,1,3.7,3.57,9.82,9.82,0,0,1,1.39,5.09,11.12,11.12,0,0,1-18.4,8.14,9.45,9.45,0,0,1-3-7.38,10.29,10.29,0,0,1,3.15-7.52A10.65,10.65,0,0,1,104.12,32.53Zm5.31,10.35c0-3.08-.52-5.39-1.56-7a4.54,4.54,0,0,0-7.94,0q-1.58,2.34-1.57,6.94a13.06,13.06,0,0,0,1.5,6.85,4.55,4.55,0,0,0,4,2.44,4.78,4.78,0,0,0,3.89-2.2Q109.43,47.77,109.43,42.88Z"/><path class="cls-2" d="M117.62,42.38c0-.32,0-.5.09-.55a1.38,1.38,0,0,1,.64-.08H127a1.53,1.53,0,0,1,.64.08c.06.05.09.23.09.55V44.1c0,.31,0,.49-.08.54a1.44,1.44,0,0,1-.65.08h-8.67a1.38,1.38,0,0,1-.64-.08q-.09-.07-.09-.54Z"/><path class="cls-2" d="M146.5,32.9l.78,4.6,0,.21c0,.29-.1.44-.31.44s-.28-.11-.41-.33A9.74,9.74,0,0,0,143.92,35a8.64,8.64,0,0,0-4.78-1q-2.26,0-2.55.48c-.18.32-.28,2.82-.28,7.49a10.85,10.85,0,0,0,2.6-.23,2.63,2.63,0,0,0,1.4-.83,5.87,5.87,0,0,0,.9-2.19c.07-.28.19-.42.35-.42.31,0,.46.19.46.57l-.11,4.87a19.49,19.49,0,0,1-.13,2.72.34.34,0,0,1-.34.19c-.25,0-.41-.2-.45-.61a3.83,3.83,0,0,0-1-2.24c-.54-.55-1.77-.82-3.71-.82l0,5.65a7.8,7.8,0,0,0,.24,2.36,1.6,1.6,0,0,0,.71,1,3.4,3.4,0,0,0,1.48.28,3.56,3.56,0,0,1,.92.1.37.37,0,0,1,.2.38c0,.32-.23.48-.68.48s-1.21,0-2.38-.1c-1-.06-1.72-.09-2.23-.09l-4.81.15c-.49,0-.73-.15-.73-.44s.3-.43.9-.45a1.75,1.75,0,0,0,1.86-1.38,77.91,77.91,0,0,0,.3-9.62q0-5.38-.38-6.42c-.26-.69-.89-1-1.9-1h-.41c-.37,0-.55-.15-.55-.45s.29-.43.88-.43Z"/><path class="cls-2" d="M165.6,53.1q-3.81-.2-11.85-.2c-1.87,0-3.39.06-4.56.17l-.62,0c-.39,0-.58-.15-.58-.45a.33.33,0,0,1,.15-.29,3.41,3.41,0,0,1,.75-.18,2.89,2.89,0,0,0,1.45-.55,2.35,2.35,0,0,0,.71-1.25,27.11,27.11,0,0,0,.23-4.25q0-3.41,0-8.11A9.6,9.6,0,0,0,151,35.3a2.42,2.42,0,0,0-.78-1.24,2.48,2.48,0,0,0-1.44-.43c-.43,0-.65-.19-.65-.49s.25-.46.74-.46l5.06.15c.78,0,1.88,0,3.28-.12l1,0c.42,0,.64.15.64.44a.35.35,0,0,1-.21.35,5.1,5.1,0,0,1-1,.22,2.68,2.68,0,0,0-1.43.52,2.17,2.17,0,0,0-.57,1.32,37.65,37.65,0,0,0-.15,4.25V49a5,5,0,0,0,.38,2.54,1.84,1.84,0,0,0,1.39.41A13.09,13.09,0,0,0,161,51.6a6.26,6.26,0,0,0,2.33-1.41,13.35,13.35,0,0,0,2.37-3.44c.17-.33.35-.49.53-.49s.41.15.41.44C166.65,47.36,166.3,49.49,165.6,53.1Z"/><path class="cls-2" d="M184.62,32.94c.33,1.59.65,3.17,1,4.76a.39.39,0,0,1-.33.44h-.11q-.24,0-.54-.42a9.8,9.8,0,0,0-2.87-3A7.73,7.73,0,0,0,178,34a14.75,14.75,0,0,0-2.65.23q-.27,2.68-.29,5.9c0,.36,0,1,0,1.84l1.15,0a5.38,5.38,0,0,0,1.87-.29,2.65,2.65,0,0,0,1.33-1.27,9,9,0,0,0,.63-1.24c.09-.32.25-.49.47-.49s.43.13.43.37a2,2,0,0,1,0,.24,47.68,47.68,0,0,0-.18,5.66,5.83,5.83,0,0,0,.12,1.18,1.22,1.22,0,0,1,0,.26c0,.29-.16.43-.48.43s-.4-.27-.52-.81a3.34,3.34,0,0,0-1.39-2.15,6.31,6.31,0,0,0-3.44-.77c0,1.7-.08,2.83-.08,3.37,0,2.31,0,3.69.11,4.13a1.47,1.47,0,0,0,.78,1,4.61,4.61,0,0,0,2.27.41q5.81,0,7.64-3.69c.17-.35.35-.52.57-.52s.44.12.44.37a3.2,3.2,0,0,1-.09.62l-1,4.37h-5.52c-1.55,0-3,0-4.35-.11s-2.4-.09-3.15-.09-2.14,0-3.86.15l-.47,0c-.47,0-.72-.16-.72-.48s.2-.42.58-.42a2.2,2.2,0,0,0,2-.8,6.93,6.93,0,0,0,.51-3.27l.09-7.84c0-2.68,0-4.32-.1-4.94a1.72,1.72,0,0,0-.53-1.25,3.57,3.57,0,0,0-1.6-.49c-.32,0-.48-.19-.48-.43s.19-.46.57-.46l3.67.11Z"/><path class="cls-2" d="M199.81,40.07c2.19-2.7,3.28-4.38,3.28-5.07a1.06,1.06,0,0,0-.34-.82,3.37,3.37,0,0,0-1.4-.54c-.32-.06-.49-.21-.49-.47s.2-.39.58-.39q.34,0,1.17.06c.76.06,1.41.09,1.94.09.73,0,1.69,0,2.88-.1.56,0,.9,0,1,0,.49,0,.73.14.73.44s-.18.4-.57.42a4.59,4.59,0,0,0-2.1.63,7.76,7.76,0,0,0-2,1.62q-.88,1-4,5.12,1.71,3,4,6.27A19.06,19.06,0,0,0,208,51.36a4.55,4.55,0,0,0,2,.88c.48,0,.72.2.72.45s-.25.43-.73.43l-5.63-.18c-.73,0-1.45,0-2.18.07l-1.21.06a7,7,0,0,0-.81,0l-.35,0a.39.39,0,0,1-.44-.32.21.21,0,0,1,0-.11c0-.25.17-.39.52-.43,1.11-.09,1.67-.49,1.67-1.17s-1.25-2.93-3.74-6.43q-4,5.16-4,6.15c0,.71.82,1.19,2.44,1.43q.54.07.54.39c0,.31-.19.46-.55.46-.18,0-.64,0-1.39-.07-.9-.05-1.81-.08-2.71-.08s-1.52,0-2,.06-1,.09-1.22.09c-.59,0-.88-.16-.88-.47s.16-.37.47-.41a6,6,0,0,0,2.2-.66,8.17,8.17,0,0,0,2-1.93c.79-1,2.27-2.95,4.42-5.95a70.16,70.16,0,0,0-5.36-8,5.43,5.43,0,0,0-3.16-2c-.41-.06-.61-.22-.61-.47s.19-.44.57-.44a5.39,5.39,0,0,1,.8.06c.65.06,2.05.09,4.22.09q1.35,0,3.27-.09l1.34-.06c.55,0,.83.14.83.43s-.22.43-.66.45a4.55,4.55,0,0,0-1,.26c-.41.14-.62.37-.62.69a3.71,3.71,0,0,0,.64,1.53C197.73,36.86,198.56,38.17,199.81,40.07Z"/><rect class="cls-2" x="5.78" y="14.12" width="3.15" height="12.1"/><rect class="cls-2" x="13.16" y="14.12" width="3.15" height="12.1"/><rect class="cls-2" x="20.55" y="14.12" width="3.15" height="12.1"/><rect class="cls-2" x="27.93" y="14.12" width="3.15" height="12.1"/><rect class="cls-2" x="35.31" y="14.12" width="3.15" height="12.1"/><rect class="cls-2" x="42.7" y="14.12" width="3.15" height="12.1"/><rect class="cls-2" x="50.08" y="14.12" width="3.15" height="12.1"/><rect class="cls-2" x="57.46" y="14.12" width="3.15" height="12.1"/><rect class="cls-2" x="64.84" y="14.12" width="3.15" height="12.1"/><rect class="cls-2" x="72.23" y="14.12" width="3.15" height="12.1"/><rect class="cls-2" x="79.61" y="14.12" width="3.15" height="12.1"/><rect class="cls-2" x="86.99" y="14.12" width="3.15" height="12.1"/><rect class="cls-2" x="94.37" y="14.12" width="3.15" height="12.1"/><rect class="cls-2" x="101.75" y="14.12" width="3.15" height="12.1"/><rect class="cls-2" x="109.26" y="14.12" width="3.15" height="12.1"/><rect class="cls-2" x="116.76" y="14.12" width="3.15" height="12.1"/><rect class="cls-2" x="124.27" y="14.12" width="3.15" height="12.1"/><rect class="cls-2" x="131.77" y="14.12" width="3.15" height="12.1"/><rect class="cls-2" x="139.28" y="14.12" width="3.15" height="12.1"/><rect class="cls-2" x="146.78" y="14.12" width="3.15" height="12.1"/><rect class="cls-2" x="154.29" y="14.12" width="3.15" height="12.1"/><rect class="cls-2" x="161.79" y="14.12" width="3.15" height="12.1"/><rect class="cls-2" x="169.3" y="14.12" width="3.15" height="12.1"/><rect class="cls-2" x="176.8" y="14.12" width="3.15" height="12.1"/><rect class="cls-2" x="184.31" y="14.12" width="3.15" height="12.1"/><rect class="cls-2" x="191.81" y="14.12" width="3.15" height="12.1"/><rect class="cls-2" x="199.31" y="14.12" width="3.15" height="12.1"/><rect class="cls-2" x="206.82" y="14.12" width="3.15" height="12.1"/><rect class="cls-2" x="234.96" y="27.26" width="1.07" height="4.61" transform="translate(200.31 264.29) rotate(-88.63)"/><rect class="cls-2" x="234.95" y="29.08" width="1.07" height="4.61" transform="translate(197.87 265.95) rotate(-88.48)"/><path class="cls-2" d="M235.48,27.68a12,12,0,1,1,12-12A12,12,0,0,1,235.48,27.68Zm0-22.55A10.51,10.51,0,1,0,246,15.64h0A10.52,10.52,0,0,0,235.48,5.13Z"/><path class="cls-2" d="M216.69,42a5.56,5.56,0,0,1,.53-1.53l3.69,1.89a1.38,1.38,0,0,0-.15.4ZM218,39.24a7.74,7.74,0,0,1,.93-1l2.75,3.09a4.81,4.81,0,0,0-.5.51ZM220,37.49q.48-.35,1-.66l2.09,3.56c-.25.15-.49.31-.72.47Zm2-1.22c.33-.16.68-.33,1-.48l1.64,3.79-.83.39Zm2.09-.9c.34-.13.7-.26,1.06-.37l1.29,3.92-.89.31Zm2.13-.7,1.07-.29,1,4-.93.25Zm2.14-.53,1.09-.21.71,4.07-.95.19Zm12.74-.36c.29,0,.59,0,.89,0l.36,4.11a11.66,11.66,0,0,1-1.18.06ZM239,37.85l.26-4.13c.33,0,.65,0,1,.05l-.15,4.13Zm-8.39-4.08,1.1-.14.42,4.11-1,.12Zm6.33,3.93.27-4.12,1.05.07-.29,4.13Zm6-4.07q.4-.08.81-.18l1.1,4q-.6.16-1.2.27Zm-10.09-.09,1.12,0,.1,4.13c-.31,0-.63,0-1,.05Zm2.17,4.08.06-4.13c.38,0,.74,0,1.1,0l-.19,4.13-1,0Zm9.53-4.44a7.13,7.13,0,0,0,.77-.33l1.82,3.72c-.39.19-.75.35-1.12.49Zm1.53-.74q.38-.22.75-.48l2.35,3.4c-.34.23-.67.44-1,.63Zm1.49-1,.72-.59L250.88,34c-.28.26-.58.49-.86.72Zm1.43-1.23.68-.66,2.93,2.92c-.27.26-.54.53-.8.77Z"/><path class="cls-2" d="M220.08,61.39l-.43-.82,1.82-1,.44.81Zm-.92-1.72-.48-.91,1.82-1,.49.91Zm-1-1.82-.48-.91,1.82-1,.49.91Z"/><path class="cls-2" d="M245.55,61.29l-1-1.82.91-.49,1,1.82Zm1.83-1-1-1.83.92-.48,1,1.82Zm1.82-1-1-1.82.81-.43,1,1.82Z"/><path class="cls-2" d="M219.48,45.52l.13-2.06,1,.06-.13,2.07Zm-2.06-.14.13-2.06,1,.07-.13,2.06Zm-1.95-.12.13-2.07.92.06-.14,2.07Z"/><path class="cls-2" d="M252.7,31.48,254.13,30l.75.71-1.44,1.49Zm-1.48-1.43,1.43-1.48.74.71L252,30.77Zm-1.4-1.36,1.43-1.49.66.65-1.43,1.48Z"/><polygon class="cls-2" points="253.93 28.78 254.61 28.01 253.84 27.32 253.16 28.1 253.93 28.78"/><polygon class="cls-2" points="217.66 60.35 217.22 59.41 218.16 58.97 218.6 59.91 217.66 60.35"/><path class="cls-2" d="M222.44,59.5l-1.93-3.65c.26-.14.51-.28.75-.44l2.21,3.48A11.63,11.63,0,0,1,222.44,59.5Zm2-1.28L222,54.92c.23-.17.45-.36.67-.55l2.75,3.09c-.3.26-.6.52-.93.76Zm20.28,0c-.14-.32-.28-.68-.45-1.08l3.85-1.49c.12.31.24.59.35.83Zm-18.51-1.57-2.95-2.89c.21-.21.4-.43.6-.66L227,55.78c-.25.3-.51.59-.79.87Zm17.69-.53-.36-1,3.9-1.37.34,1Zm-16.17-1.24-3.29-2.49.53-.75L228.41,54C228.2,54.26,228,54.57,227.74,54.88Zm15.48-.72-.35-1,3.89-1.41c.12.34.24.67.35,1ZM229,53l-3.52-2.17c.17-.27.33-.54.49-.82l3.6,2c-.18.32-.36.64-.57,1Zm13.52-.75c-.12-.31-.24-.62-.37-.94L246,49.81c.13.33.25.66.38,1ZM230.1,51.12l-3.64-2,.47-.88,3.67,1.89c-.16.32-.33.63-.5,1Zm11.69-.71-.39-.89,3.75-1.72c.16.33.29.67.44,1Zm-10.72-1.15-3.68-1.88.48-.93,3.67,1.89Zm9.91-.6c-.14-.28-.28-.57-.44-.84l3.62-2c.18.32.35.66.52,1Zm-9-1.18-3.62-2c.18-.33.36-.65.55-1l3.55,2.13c-.16.25-.32.53-.47.81Zm8.07-.46c-.16-.26-.32-.51-.49-.75l3.36-2.4c.22.32.44.64.65,1ZM233,45.89l-3.41-2.34c.24-.35.48-.67.73-1l3.19,2.62c-.17.2-.34.43-.51.67Zm6.08-.31a7.82,7.82,0,0,0-.55-.6l2.86-3a12.48,12.48,0,0,1,.86.92Zm-5-.92-2.81-3a8.42,8.42,0,0,1,1.09-.86l2.24,3.47a4.07,4.07,0,0,0-.52.41Zm3.92-.18a4.45,4.45,0,0,0-.58-.38l1.91-3.66a8.59,8.59,0,0,1,1.15.73ZM235,44l-1.5-3.85a7.32,7.32,0,0,1,1.39-.38l.7,4.07a2.82,2.82,0,0,0-.57.15Zm1.67-.1a2.93,2.93,0,0,0-.59-.11l.37-4.12a7.12,7.12,0,0,1,1.43.29Z"/><path class="cls-2" d="M236.51,9.32v3.95h-1.64V11.61H233v4.27h1.51v2.4h-4.68v-2.4h1.65V11.61h-1.9v1.66H228V9.32Z"/><path class="cls-2" d="M243,15.85v3.69h-1.23V18.15h-3.89v1.79h2.33v.92h-2.33v1.57h2v2.4H235.2v-2.4h1.15V18.15H235.2V15.86Z"/></g></g></g></svg>