<svg xmlns="http://www.w3.org/2000/svg" viewBox="0 0 112 98"><defs><style>.cls-1{fill:#c4c4c4;opacity:0;}.cls-2{fill:#f4763b;}.cls-3{fill:#fff;}</style></defs><title>mp</title><g id="Layer_2" data-name="Layer 2"><g id="Layer_1-2" data-name="Layer 1"><rect class="cls-1" width="112" height="98"/><g id="Imagem_" data-name="Imagem "><path id="Caminho_658" data-name="Caminho 658" class="cls-2" d="M15,32.25a42.88,42.88,0,0,1,76.1-5.51,24,24,0,0,1,4.54,1.15,46.27,46.27,0,0,0-83.08,1.49A5.38,5.38,0,0,1,15,32.25Z"/><path id="Caminho_659" data-name="Caminho 659" class="cls-2" d="M77.78,84.93v3.24H74.89a11.4,11.4,0,0,1-2.4-.28,42.86,42.86,0,0,1-56.86-20.6V70.6H13.5a46.26,46.26,0,0,0,81.78.12,22.13,22.13,0,0,1-4.36.77A43.14,43.14,0,0,1,77.78,84.93Z"/><path class="cls-3" d="M66.36,69.68h1.73l.11-25.27c0-9.37-6.12-15.93-15-16-5.58,0-10.74,2.65-13.14,6.82l-.48.83-.45-.85c-2.31-4.36-7-7-12.52-7a13.1,13.1,0,0,0-11.48,6.21l-1,1.64V34.19a4.4,4.4,0,0,0-4.38-4.4l-6.69,0L3,59.59a9.84,9.84,0,0,0,9.79,9.87h1.73L14.6,46.9c0-5.16,3.09-8.62,7.63-8.6s7.34,3.5,7.32,8.66L29.5,59.7a9.84,9.84,0,0,0,9.79,9.87H41L41.11,47c0-5.08,3.26-8.62,7.87-8.6,4.53.19,7.66,3.75,7.64,8.66l0,12.74A9.84,9.84,0,0,0,66.36,69.68Z"/><path class="cls-3" d="M86.77,27.59c-8.27,0-14.55,3-18.19,8.68,1,2.11,1.47,5.06,1.46,9l-.11,26.29-.5,0a30.85,30.85,0,0,1-4.3,0l0,5.6a9.83,9.83,0,0,0,9.79,9.87h1.73l.09-21.81.89.85a16.21,16.21,0,0,0,11.21,4.34c11.65,0,20.14-8.91,20.19-21.3S99.71,27.64,86.77,27.59Zm0,32.79c-6.1,0-10.51-4.81-10.48-11.37s4.47-11.39,10.58-11.36S97.48,42.49,97.45,49.1,92.94,60.4,86.79,60.38Z"/></g></g></g></svg>