<svg xmlns="http://www.w3.org/2000/svg" xmlns:xlink="http://www.w3.org/1999/xlink" viewBox="0 0 60 120"><defs><style>.cls-1{fill:#fff;}.cls-2{fill:#c4c4c4;opacity:0;}.cls-3{clip-path:url(#clip-path);}.cls-4{clip-path:url(#clip-path-2);}</style><clipPath id="clip-path"><path id="SVGID" class="cls-1" d="M46.56,62.08c.85,4,2.07,7.88,3.15,11.8C52,82.06,51,89.67,46.17,96.81c-3.74,5.59-7,11.45-7.09,17.19,1.84-7.83,6.45-10.46,10.51-16.36a29.24,29.24,0,0,0,4-25.88c-4.78-14.56-9-22.24-6-37.33.06-.34,1.88-7.63,2.28-9-4.73,12.55-5.92,24.46-3.28,36.69"/></clipPath><clipPath id="clip-path-2"><path id="SVGID-2" data-name="SVGID" class="cls-1" d="M27.05,13.52c-7.8,6.31-8.61,13.08-1.36,20.71-2.94,2.76-6.12,5.33-8.82,8.34C11.05,49.05,6.73,56.39,5.29,65.17c-1.8,11,4.78,23.5,15.43,28.2-1.86-2-3.33-3.53-4.7-5.12-8.26-9.61-9.54-19.82-3.81-31.14,4.48-8.86,11.15-15.91,18.66-22.24C32,34,33,33,34.44,31.77l-2.64-.35c-3.31-.43-6.44-1.44-7.6-5-1.27-3.84.06-7.08,2.49-10.08,2.55-3.16,4-4.62,6.61-7.53.53-.59,2-2,2.73-2.86-2.91,2.45-5.82,5-9,7.52"/></clipPath></defs><title>gob</title><g id="Layer_2" data-name="Layer 2"><g id="Layer_1-2" data-name="Layer 1"><rect class="cls-2" width="60" height="120"/><path id="SVGID-3" data-name="SVGID" class="cls-1" d="M46.56,62.08c.85,4,2.07,7.88,3.15,11.8C52,82.06,51,89.67,46.17,96.81c-3.74,5.59-7,11.45-7.09,17.19,1.84-7.83,6.45-10.46,10.51-16.36a29.24,29.24,0,0,0,4-25.88c-4.78-14.56-9-22.24-6-37.33.06-.34,1.88-7.63,2.28-9-4.73,12.55-5.92,24.46-3.28,36.69"/><g class="cls-3"><rect class="cls-1" x="39.08" y="25.39" width="17.34" height="88.61"/></g><path id="SVGID-4" data-name="SVGID" class="cls-1" d="M27.05,13.52c-7.8,6.31-8.61,13.08-1.36,20.71-2.94,2.76-6.12,5.33-8.82,8.34C11.05,49.05,6.73,56.39,5.29,65.17c-1.8,11,4.78,23.5,15.43,28.2-1.86-2-3.33-3.53-4.7-5.12-8.26-9.61-9.54-19.82-3.81-31.14,4.48-8.86,11.15-15.91,18.66-22.24C32,34,33,33,34.44,31.77l-2.64-.35c-3.31-.43-6.44-1.44-7.6-5-1.27-3.84.06-7.08,2.49-10.08,2.55-3.16,4-4.62,6.61-7.53.53-.59,2-2,2.73-2.86-2.91,2.45-5.82,5-9,7.52"/><g class="cls-4"><rect class="cls-1" x="3.49" y="6" width="32.54" height="87.37"/></g></g></g></svg>