<svg xmlns="http://www.w3.org/2000/svg" viewBox="0 0 85 70"><defs><style>.cls-1{fill:#c4c4c4;opacity:0;}.cls-2{fill:#fff;}</style></defs><title>bfactor</title><g id="Layer_2" data-name="Layer 2"><g id="Layer_1-2" data-name="Layer 1"><rect class="cls-1" width="85" height="70"/><g id="Layer_2-2" data-name="Layer 2"><g id="Camada_1" data-name="Camada 1"><path class="cls-2" d="M1.76,35A40.66,40.66,0,0,0,16.45,66.33V3.67A40.67,40.67,0,0,0,1.76,35Z"/><path class="cls-2" d="M55.41,18.08c0-5-3-8-7.89-7.84H34.06V26.4H47.52C52.43,26.4,55.41,23.31,55.41,18.08Z"/><path class="cls-2" d="M61.86,34.45c8.56,2.14,13.85,10.34,13.85,21a26.81,26.81,0,0,1-.7,6.18,40.74,40.74,0,0,0-2.58-52.2,21.93,21.93,0,0,1,1.06,6.92C73.49,25.06,69,32.08,61.86,34.45Z"/><path class="cls-2" d="M57.53,50.64c0-5.23-3.85-8.55-10-8.44H34.06V59.67H47.52C53.68,59.67,57.53,56.35,57.53,50.64Z"/><path class="cls-2" d="M20.48,33h1.81v1.28H20.48V38h-1.4V29.05h3.71v1.27H20.48Z"/><path class="cls-2" d="M30.39,38H29l-.24-1.62H27L26.77,38H25.48l1.43-8.92H29Zm-3.2-2.82h1.36l-.67-4.53h0Z"/><path class="cls-2" d="M37.65,34.64v1.19a2.1,2.1,0,1,1-4.19,0V31.19c0-1.43.72-2.25,2.09-2.25s2.09.82,2.09,2.25v.86H36.32V31.1c0-.64-.28-.88-.73-.88s-.73.24-.73.88v4.82c0,.64.29.87.73.87s.73-.23.73-.87V34.64Z"/><path class="cls-2" d="M40.64,29.05H45v1.27H43.51V38h-1.4V30.32H40.64Z"/><path class="cls-2" d="M48,31.19a2.13,2.13,0,1,1,4.26,0v4.64a2.13,2.13,0,1,1-4.26,0Zm1.4,4.73c0,.64.28.88.73.88s.72-.24.72-.88V31.1c0-.64-.28-.88-.72-.88s-.73.24-.73.88Z"/><path class="cls-2" d="M58.67,38a3,3,0,0,1-.12-1.1v-1.4c0-.83-.28-1.13-.92-1.13h-.49V38h-1.4V29h2.12c1.45,0,2.08.68,2.08,2.05v.7a1.79,1.79,0,0,1-.91,1.8v0c.7.29.93,1,.93,1.88v1.38A2.63,2.63,0,0,0,60.12,38Zm-1.53-7.65v2.74h.55c.53,0,.85-.22.85-.94v-.88c0-.64-.23-.91-.72-.91Z"/></g></g></g></g></svg>